<svg width="600" height="600" viewBox="0 0 600 600" fill="none" xmlns="http://www.w3.org/2000/svg">
<path d="M384.82 526.325C378.484 524.087 374.564 524.529 368.435 524.529C361.303 524.529 351.901 524.47 345.506 530.478C339.111 536.486 331.537 542.23 324.847 543.025C318.187 543.82 307.077 545.97 302.243 550.977C300.122 553.864 299.503 554.629 299.886 561.757C300.151 566.44 304.69 566.293 304.189 568.885C303.864 570.593 301.448 571.064 299.061 570.092C296.674 569.12 294.552 566.705 294.228 562.582C293.668 555.572 294.404 548.032 300.652 544.733C307.047 541.346 310.761 540.05 320.781 538.46C329.858 537.017 338.08 530.449 343.414 526.09C350.163 520.582 359.977 519.905 369.908 520.17C374.653 520.288 378.632 519.816 383.671 521.112" fill="#362E53"/>
<path d="M411.608 534.008C418.651 535.039 421.569 535.304 421.363 546.761C421.215 555.862 423.249 566.789 414.614 569.086C409.81 570.353 405.655 570.353 405.301 567.997C404.8 564.875 410.193 564.875 413.347 564.079C416.47 563.284 416.441 559.691 416.471 549.118C416.5 539.398 415.321 540.547 409.663 539.398L411.608 534.008Z" fill="#362E53"/>
<path d="M99.1601 355.876C99.1601 355.876 87.4012 375.256 77.5875 385.27C69.041 393.988 50.5336 407.595 38.3917 414.664C26.2499 421.732 20.3557 423.411 20.6209 429.037C20.7977 432.983 30.5525 434.662 50.9461 433.867C71.3398 433.072 85.8393 433.307 94.0616 433.072C101.518 432.866 101.105 431.894 101.105 429.95C101.105 428.006 96.8024 427.8 93.2659 427.8C89.7294 427.8 56.2213 429.567 50.5335 429.567C44.8457 429.567 27.5465 430.48 27.016 427.358C26.6034 424.825 32.7037 423.499 39.5704 419.582C46.437 415.665 67.5969 402.735 79.7388 389.599C91.8807 376.463 102.461 359.616 102.461 359.616L99.1601 355.876Z" fill="#362E53"/>
<path d="M113.129 375.908C112.51 375.407 111.332 375.525 110.182 376.762C106.675 380.444 102.225 390.87 102.52 401.738C102.697 408.394 103.109 414.874 103.109 419.969C103.109 425.064 103.905 426.243 105.467 426.419C107.029 426.625 107.825 424.858 107.825 419.174C107.825 413.489 107.206 405.361 107.235 400.471C107.265 393.226 109.593 385.892 111.361 382.947C113.778 378.794 114.455 376.998 113.129 375.908Z" fill="#362E53"/>
<path fill-rule="evenodd" clip-rule="evenodd" d="M364.779 291.642C366.341 295.5 375.271 338.56 377.128 350.4C377.17 350.68 377.228 350.935 377.285 351.18C377.542 352.302 377.756 353.234 376.184 355.554C372.618 360.915 360.565 373.344 335.928 375.671C304.777 378.616 268.322 363.33 262.428 360.385C256.534 357.439 250.08 355.083 249.49 360.974C249.291 362.968 249.024 364.692 248.689 366.852C248.035 371.073 247.124 376.959 245.954 389.779C245.723 392.317 245.431 395.497 245.096 399.162C242.866 423.521 238.679 469.252 237.142 489.682C235.577 510.487 232.164 510.568 225.698 510.721C224.86 510.741 223.97 510.762 223.026 510.829C217.351 511.236 208.025 511.081 199.895 510.946C196.246 510.886 192.837 510.829 190.107 510.829C181.296 510.829 180.117 508.473 179.527 496.721C179.165 489.508 179.026 481.185 178.835 469.851C178.716 462.721 178.576 454.4 178.348 444.413C177.759 418.554 177.17 339.797 177.17 339.797C177.17 336.292 172.071 341.741 166.59 348.427C163.398 352.319 156.35 359.657 149.78 366.497C145.065 371.405 140.596 376.058 137.974 378.999C133.017 384.583 129.526 382.53 125.351 380.076C124.264 379.436 123.13 378.77 121.912 378.204C117.623 376.2 111.851 372.306 106.916 368.976C105.103 367.753 103.403 366.606 101.931 365.657C96.4496 362.122 95.6539 360.178 100.369 351.166C105.084 342.153 131.343 297.886 157.601 257.153C183.859 216.39 198.388 210.146 213.271 209.351C232.896 208.316 254.572 224.24 266.53 233.025C266.818 233.238 267.102 233.446 267.379 233.649C279.138 242.279 326.851 279.537 330.888 283.012C334.548 286.184 337.931 286.279 346.716 286.524C346.986 286.531 347.26 286.539 347.539 286.547C350.233 286.623 352.438 286.622 354.261 286.621C361.589 286.618 362.75 286.618 364.779 291.642ZM283.213 283.417C284.35 283.584 285.186 283.707 285.651 283.777C287.331 284.042 291.516 284.838 291.103 287.164C290.634 289.512 285.401 288.718 276.86 287.421L276.859 287.42L276.858 287.42L276.857 287.42C275.756 287.253 274.6 287.077 273.392 286.899C269.97 286.39 266.397 285.788 262.693 285.165C246.685 282.469 228.235 279.362 208.969 281.539C195.176 283.1 186.925 297.797 182.298 309.431C181.225 312.116 180.428 314.69 179.751 316.878C178.548 320.761 177.723 323.426 176.404 323.332C171.07 322.949 177.966 302.185 184.626 292.584C191.286 282.982 197.947 278.476 208.144 276.915C218.34 275.354 235.787 275.766 250.493 278.299C262.854 280.428 277.215 282.537 283.212 283.417L283.213 283.417ZM234.814 312.498C230.57 307.991 211.591 343.07 207.465 353.054C207.171 353.766 206.862 354.493 206.548 355.232L206.547 355.233C202.456 364.857 197.442 376.649 211.591 387.426C222.1 395.432 219.074 404.734 215.671 415.194C213.454 422.011 211.076 429.32 212.181 437.083C212.451 438.985 212.744 440.722 213.016 442.339C214.023 448.31 214.757 452.66 213.065 457.759C212.726 458.778 212.409 459.7 212.122 460.532L212.122 460.534L212.12 460.539L212.12 460.539C210.588 464.989 209.942 466.864 211.68 467.36C213.978 468.008 216.041 462.589 217.279 458.142C218.824 452.567 218.089 447.621 216.934 439.852L216.934 439.849C216.789 438.875 216.638 437.857 216.483 436.788C215.358 428.988 218.92 417.611 221.071 410.743L221.071 410.743C221.567 409.157 221.989 407.811 222.26 406.805C222.3 406.655 222.344 406.493 222.391 406.321L222.393 406.314L222.394 406.311C223.493 402.293 226.17 392.506 215.216 384.097C205.019 376.263 204.842 369.018 210.501 355.882C216.159 342.746 226.769 326.311 230.482 321.392C230.869 320.887 231.239 320.408 231.589 319.955L231.595 319.948L231.595 319.947C234.632 316.021 236.214 313.976 234.814 312.498ZM186.482 494.956C186.302 498.192 191.879 498.159 202.276 498.097C203.804 498.088 205.437 498.078 207.17 498.078H224.411C228.33 498.078 230.098 497.283 230.098 495.133C230.098 492.983 227.741 492.983 224.028 492.983H191.905C188.987 492.983 186.57 493.395 186.482 494.956ZM266.938 316.411C266.643 318.06 268.235 318.62 271.034 319.592C279.728 322.625 296.998 324.746 305.721 325.777C319.867 327.485 345.919 326.807 352.137 325.836C354.643 325.423 356.411 325.04 356.322 323.774C356.263 322.772 356.087 321.683 352.344 321.771C345.831 321.889 320.457 322.213 308.668 321.241C299.533 320.475 276.133 316.352 272.685 315.498C270.15 314.791 267.262 314.643 266.938 316.411ZM109.869 354.675C108.381 353.695 105.814 352.004 107.412 349.927C108.149 348.985 110.006 349.721 111.597 350.781C112.662 351.486 113.964 352.244 115.398 353.079L115.398 353.079C116.78 353.884 118.286 354.761 119.819 355.729C122.943 357.703 134.702 364.889 137.325 366.45C139.948 368.011 141.009 369.454 140.213 370.632C139.417 371.811 137.59 371.546 134.849 369.984C134.017 369.51 133.127 369.025 132.182 368.51L132.181 368.509L132.181 368.509C130.013 367.327 127.549 365.984 124.8 364.241C123.126 363.168 120.963 361.794 118.815 360.43L118.81 360.426L118.809 360.426L118.808 360.426C114.946 357.972 111.133 355.55 110.3 354.964C110.173 354.876 110.027 354.78 109.869 354.675L109.869 354.675ZM335.544 302.6C332.126 305.722 330.24 308.078 328.884 310.346C327.528 312.614 328.088 313.468 328.884 313.969C329.68 314.469 331.035 313.674 332.126 312.29C333.216 310.905 336.546 307.283 338.491 305.545C339.827 304.352 341.689 303.132 343.26 302.103C343.978 301.632 344.634 301.202 345.152 300.833C346.832 299.655 346.537 298.683 346.124 298.152C345.358 297.092 343.885 297.504 342.794 298.005C341.733 298.476 337.814 300.538 335.544 302.6Z" fill="#362E53"/>
<path d="M375.241 348.424C372.264 349.013 374.445 356.848 375.241 361.56C376.037 366.273 377.304 373.901 381.43 373.312C385.556 372.723 403.179 366.567 407.305 365.389C411.431 364.211 414.761 362.856 414.171 360.677C413.582 358.527 410.045 359.882 406.332 361.266C402.619 362.65 385.762 368.217 383.787 368.599C381.812 368.982 381.253 368.393 380.663 365.478C380.074 362.532 378.689 355.493 377.922 352.931C377.127 350.398 377.215 348.042 375.241 348.424Z" fill="#362E53"/>
<path d="M425.312 290.464C422.041 289.669 421.982 294.587 421.01 299.859C420.037 305.161 413.377 352.167 412.964 356.467C412.552 360.768 410.813 366.835 413.76 367.424C416.707 368.013 416.501 362.328 417.679 356.261C418.858 350.194 425.135 304.631 425.725 300.242C426.314 295.736 427.788 291.023 425.312 290.464Z" fill="#362E53"/>
<path d="M293.026 379.492C289.696 377.608 260.108 405.352 267.741 413.864C275.373 422.376 293.91 409.446 309.206 415.926C324.501 422.376 334.491 426.499 348.019 426.794C361.546 427.088 379.758 421.492 384.179 420.049C388.6 418.576 391.134 417.31 390.338 415.631C389.454 413.746 383.973 416.132 380.436 417.015C376.9 417.899 364.168 422.376 347.193 422.228C334.934 422.14 315.866 413.687 311.564 412.303C307.261 410.919 299.756 409.44 290.698 410.919C281.565 412.409 273.753 414.335 271.601 411.714C269.45 409.063 273.959 400.05 280.03 394.278C286.101 388.505 290.138 384.971 292.083 383.498C294.028 382.025 294.588 380.376 293.026 379.492Z" fill="#362E53"/>
<path d="M255.295 424.445C257.181 426.33 262.958 429.747 262.958 429.747C272.182 434.96 288.008 436.609 296.259 436.609C304.482 436.609 374.18 437.198 383.375 437.198C392.599 437.198 395.723 436.02 395.723 439.172C395.723 442.323 390.418 441.528 383.581 441.528H352.607C344.178 441.528 318.51 441.322 297.91 441.528C277.339 441.734 266.17 437.021 259.686 433.193C254.499 430.13 251.258 427.037 249.401 425.358C248.075 424.151 247.633 422.325 248.9 421.146C250.167 419.968 251.553 420.705 255.295 424.445Z" fill="#362E53"/>
<path d="M362.745 192.503C362.48 196.627 360.063 219.924 359.474 228.436C358.885 236.948 352.966 281.333 352.377 286.016C351.788 290.699 352.082 291.612 353.851 291.906C355.619 292.201 356.798 288.666 358.271 276.62C359.745 264.574 363.895 229.909 364.779 224.018C365.663 218.127 367.019 199.66 367.136 191.119C367.195 186.495 367.461 183.079 361.242 180.163C352.843 176.187 342.234 170.355 337.135 167.233C332.037 164.111 332.037 161.755 337.931 161.932C343.825 162.138 357.323 164.465 362.834 167.233C368.315 169.972 374.976 173.124 377.716 188.203C377.716 188.203 382.432 213.474 383.316 221.397C384.2 229.319 385.673 241.366 386.263 248.729C386.852 256.063 387.206 258.448 387.471 261.452C387.736 264.457 388.001 268.109 390.359 267.726C392.717 267.343 391.273 253.235 391.155 250.084C391.037 246.932 388.267 222.928 387.501 217.185C386.705 211.442 382.638 191.532 380.958 182.843C379.219 173.801 373.649 166.467 364.513 162.933C355.378 159.399 330.711 155.01 327.469 161.46C324.227 167.91 346.566 177.836 352.843 180.634C364.042 185.582 363.04 188.086 362.745 192.503Z" fill="#362E53"/>
<path d="M368.286 287.519C370.467 291.437 382.108 282.807 391.804 278.419C401.5 274.001 414.437 267.55 429.438 261.954C444.439 256.358 456.492 250.497 462.357 248.73C468.251 246.963 468.546 246.374 468.251 244.607C467.956 242.84 463.83 243.723 459.144 245.49C454.429 247.258 433.269 255.475 428.259 257.537C423.249 259.598 397.374 271.055 391.215 274.001C385.055 276.946 366.813 284.869 368.286 287.519Z" fill="#362E53"/>
<path d="M454.722 178.808C451.481 177.63 446.795 191.149 442.669 192.621C438.543 194.094 431.205 192.621 430.026 196.156C428.847 199.69 432.089 202.311 430.321 207.613C428.553 212.914 425.281 226.816 434.447 232.294C440.223 235.74 443.17 240.806 445.027 244.34C446.058 246.343 447.502 247.492 448.593 247.109C452.129 245.931 448.298 240.158 446.235 236.653C442.433 230.262 437.748 230.262 434.476 224.784C431.087 219.099 434.447 210.558 435.036 206.14C435.626 201.722 433.857 200.25 435.331 198.217C436.804 196.156 441.225 198.806 445.321 195.861C449.447 192.916 451.657 188.027 453.838 184.404C456.815 179.456 454.722 178.808 454.722 178.808Z" fill="#362E53"/>
<path d="M436.422 212.621C437.454 217.804 442.169 215.743 444.379 214.329C446.59 212.915 449.478 210.677 448.181 207.938C446.884 205.169 435.509 208.055 436.422 212.621Z" fill="#362E53"/>
<path d="M472.081 229.703C475.057 232.796 485.873 225.786 492.15 222.664C498.427 219.542 507.121 214.653 502.347 206.612C500.785 203.962 503.349 202.901 503.673 200.309C504.056 196.775 502.494 195.509 500.431 193.948C498.427 192.416 501.728 188.764 499.901 185.878C497.779 182.549 494.537 183.669 493.064 183.168C491.059 182.491 493.8 177.955 490.942 175.893C488.849 174.391 487.759 174.921 484.546 174.862C480.303 174.774 484.694 167.676 479.183 165.732C473.937 163.906 472.11 167.381 470.224 168.118C468.013 168.972 466.422 165.644 462.178 166.439C457.257 167.352 454.545 175.039 460.616 180.93C466.687 186.82 458.082 196.216 460.41 200.722C462.738 205.228 466.275 206.406 470.784 203.461C475.293 200.516 482.828 202.58 482.147 210.344C480.375 221.378 465.695 224.27 472.081 229.703Z" fill="#79A3F3"/>
<path d="M471.581 230.41C469.518 230.528 468.634 234.416 469.429 238.745C470.225 243.046 471.404 246.374 473.85 245.49C476.296 244.607 473.555 241.19 473.467 237.067C473.349 232.943 473.437 230.322 471.581 230.41Z" fill="#362E53"/>
<path d="M480.068 252.322C484.695 265.959 485.697 288.696 484.813 298.681C484.223 305.425 483.546 329.047 481.099 341.387C479.773 348.044 476.885 361.651 476.001 363.919C475.117 366.157 474.321 367.6 473.172 367.453C472.258 367.335 471.698 366.187 472.376 363.742C473.083 361.18 475.264 352.432 476.826 342.86C478.388 333.258 480.422 306.957 480.628 290.11C480.834 273.263 478.152 259.891 476.914 255.444C475.706 251.115 473.319 247.816 475.529 246.638C476.885 245.843 478.506 247.669 480.068 252.322Z" fill="#362E53"/>
<path d="M179.792 502.672C179.792 502.672 181.619 528.65 167.385 542.493C153.151 556.335 136.677 565.083 133.022 567.292C129.368 569.501 128.484 571.327 129.663 572.8C130.606 573.978 132.639 573.536 136.028 571.474C139.417 569.413 157.454 560.753 170.391 546.675C183.329 532.567 184.891 517.693 184.242 507.12L179.792 502.672Z" fill="#362E53"/>
<path d="M193.908 549.413C191.02 549.943 193.525 556.335 194.704 559.604C195.883 562.873 197.061 563.521 198.741 562.873C200.45 562.225 200.038 558.838 198.211 553.979C196.383 549.148 195.352 549.148 193.908 549.413Z" fill="#362E53"/>
<path d="M202.866 512.598C199.153 512.804 202.483 523.554 203.249 530.623C204.045 537.662 207.67 550.592 208.643 556.394C209.615 562.167 210.882 566.585 211.383 569.824C211.884 573.064 212.562 578.042 215.686 577.158C218.81 576.275 216.276 568.529 215.598 564.022C214.92 559.516 210.411 541.314 209.91 537.662C209.409 534.039 206.58 520.727 206.079 517.87C205.607 515.042 204.723 512.48 202.866 512.598Z" fill="#362E53"/>
<path d="M273.331 435.312C273.331 435.312 258.92 484.675 254.794 498.489C250.668 512.302 242.446 542.845 239.499 553.153C236.551 563.432 232.16 572.533 235.078 574.005C238.025 575.478 242.122 559.014 243.89 552.564C245.658 546.114 257.859 504.998 260.511 495.897C263.163 486.796 273.449 451.099 273.449 451.099C274.244 448.095 278.282 448.36 282.467 447.565C286.651 446.77 292.575 445.915 294.108 445.356C296.2 444.561 295.935 448.36 293.076 453.838C290.217 459.317 276.484 494.071 272.948 503.083C269.411 512.096 255.177 547.881 251.64 556.628C248.104 565.376 247.986 567.585 246.807 570.206C245.628 572.827 248.104 575.036 250.078 571.119C252.053 567.202 269.942 523.848 273.743 515.365C277.545 506.883 300.532 447.594 300.65 447.447C300.768 447.329 304.452 439.23 304.452 439.23L273.331 435.312Z" fill="#362E53"/>
<path d="M416.794 367.719C416.529 368.603 407.393 404.447 403.857 418.555C400.32 432.663 394.367 462.322 392.687 469.39C390.831 477.195 390.566 480.052 389.917 482.408C389.269 484.765 389.534 486.443 390.949 486.708C392.363 486.974 393.689 482.791 394.75 477.814C395.782 472.866 401.794 445.18 402.707 441.764C403.621 438.377 411.195 405.448 412.521 400.618C413.818 395.788 416.176 385.862 416.971 383.506C417.767 381.15 420.095 379.854 428.199 379.059C436.304 378.263 443.76 376.319 447.149 375.789C450.538 375.259 450.951 375.524 449.89 377.615C448.858 379.707 443.996 393.667 441.52 399.823C439.045 405.949 432.237 424.622 429.496 431.808C426.756 438.995 419.948 459.229 418.268 464.707C416.588 470.185 412.138 484.676 410.959 488.093C409.78 491.48 409.515 493.836 411.224 494.366C412.934 494.896 414.761 488.623 416.441 484.175C418.15 479.728 429.643 446.181 429.643 446.181C429.643 446.181 445.44 401.649 447.532 396.818C449.625 391.988 455.106 376.172 455.755 374.493C456.403 372.785 459.144 373.197 460.588 373.197H470.401C472.376 373.197 474.439 372.932 474.586 370.576C474.704 368.22 471.698 368.603 463.859 368.367C456.02 368.102 430.263 366.924 426.49 366.806C422.718 366.688 417.413 365.746 416.794 367.719V367.719Z" fill="#362E53"/>
<path d="M422.688 460.584C422.688 460.584 436.51 493.188 439.752 502.908C442.994 512.598 455.047 542.286 458.289 550.798C461.531 559.31 465.038 565.789 466.216 569.029C467.395 572.269 469.164 574.625 470.637 574.036C472.111 573.447 471.521 569.913 469.753 565.524C467.985 561.106 459.468 538.487 457.699 534.098C455.931 529.709 439.163 486.797 437.129 481.79C435.066 476.783 425.37 453.869 425.37 453.869L422.688 460.584Z" fill="#362E53"/>
<path d="M446.678 440.498C447.268 443.149 467.661 509.653 469.99 519.049C472.347 528.444 486.758 578.69 486.758 578.69H482.043C482.043 578.69 473.821 552.536 472.052 544.025C470.284 535.513 457.347 494.662 455.284 486.739C453.221 478.816 443.466 452.25 443.466 452.25C441.757 444.209 428.701 445.21 428.701 445.21L431.059 435.815C431.059 435.815 445.824 437.523 457.052 433.724C468.28 429.925 479.008 423.15 487.377 406.569C495.747 389.987 505.678 363.479 506.592 350.284C507.506 337.089 508.301 328.489 502.938 326.251C497.574 324.042 492.888 328.46 491.061 330.05C489.234 331.641 487.79 331.876 486.876 330.963C485.963 330.05 485.845 328.99 488.586 326.398C491.326 323.777 497.486 319.359 503.999 321.303C510.511 323.247 514.726 332.524 511.72 350.697C508.714 368.839 499.843 391.842 492.24 408.689C484.666 425.536 468.575 440.41 444.94 442" fill="#362E53"/>
<path d="M489.351 482.405C494.832 482.376 504.44 485.38 510.245 489.061C519.853 495.129 522.535 504.141 522.122 506.88C521.739 509.619 511.719 511.946 498.722 505.761C491.325 502.256 487.494 497.455 485.402 493.096C483.103 488.325 482.779 485.144 483.574 483.819C484.4 482.552 487.376 482.434 489.351 482.405Z" fill="#79A3F3"/>
<path d="M493.83 441.468C490.648 443.47 492.652 458.815 499.43 467.916C506.208 477.017 517.731 481.229 521.238 480.051C524.775 478.873 523.979 467.651 517.584 457.195C510.923 446.357 496.394 439.848 493.83 441.468Z" fill="#79A3F3"/>
<path d="M529.923 508.057L529.037 501.451C530.264 497.637 533.399 494.776 532.455 488.5C531.568 482.605 533.329 472.327 536.446 465.944C541.014 456.636 554.659 447.388 559.403 449.715C564.06 451.983 561.172 468.388 556.81 476.929C553.46 483.511 545.846 491.007 539.783 492.655C536.738 493.482 535.239 495.184 533.399 499.68C531.559 504.175 529.923 508.057 529.923 508.057Z" fill="#79A3F3"/>
<path d="M552.713 495.161C546.819 498.931 540.365 506.707 542.339 510.447C544.844 515.219 553.892 514.158 561.142 510.241C571.515 504.645 578.795 494.955 576.614 490.449C575.081 487.209 563.116 488.476 552.713 495.161Z" fill="#79A3F3"/>
<path d="M515.875 475.282C515.875 475.282 523.213 485.856 526.16 499.964C529.107 514.072 527.044 521.023 530.581 521.023C534.117 521.023 531.141 506.797 529.697 498.786C528.017 489.626 523.537 480.26 520.001 474.693L515.875 475.282Z" fill="#79A3F3"/>
<path d="M496.66 577.63C491.179 573.713 486.434 560.783 486.758 546.969C487.053 534.629 491.856 521.994 495.746 518.872C498.811 516.398 507.063 517.311 517.054 517.311H550.562C557.311 517.311 559.373 516.427 562.615 522.907C565.857 529.357 569.364 538.193 569.364 549.061C569.364 559.929 566.122 573.742 561.436 579.044H557.016C557.016 579.044 565.533 562.285 564.354 549.355C563.175 536.425 560.14 526.677 558.165 524.379C556.603 522.553 557.635 522.406 551.122 522.406H500.697C498.104 522.406 496.395 526.441 494.951 531.536C493.507 536.632 491.414 542.375 492.593 554.392C493.772 566.408 496.896 572.152 502.407 577.63L496.454 576.363" fill="#362E53"/>
<path d="M104.848 578.394C104.848 582.812 110.447 581.928 117.196 581.928H563.499C571.132 581.928 573.489 581.045 573.489 578.688C573.489 576.332 570.837 576.332 563.499 576.332H117.491C110.712 576.332 104.848 576.038 104.848 578.394Z" fill="#362E53"/>
<path d="M269.501 240.217C269.501 240.217 283.293 222.162 305.367 217.597C326.143 213.297 362.982 212.59 362.982 212.59L362.392 217.008C362.392 217.008 316.89 219.364 304.836 222.31C292.783 225.255 277.723 237.007 273.303 242.279L269.501 240.217Z" fill="#362E53"/>
<path d="M385.997 216.658C385.997 216.658 391.597 216.805 398.758 217.571C411.401 218.955 420.213 227.761 422.305 225.788C424.132 224.08 420.095 221.606 414.731 218.749C409.839 216.127 403.09 212.74 385.319 212.623L385.997 216.658Z" fill="#362E53"/>
<path d="M406.421 528.268C404.947 528.15 404.564 530.624 403.975 535.307C403.385 539.99 402.825 547.854 401.175 547.854C399.996 547.854 399.377 541.109 399.584 536.603C399.878 529.652 398.641 527.885 397.344 527.885C395.664 527.885 394.986 529.652 393.925 533.186C393.159 535.719 392.245 539.077 390.684 542.964C389.298 546.44 388.65 540.107 388.267 534.688C387.854 529.033 387.56 520.256 386.558 515.956C385.556 511.656 384.524 509.035 377.923 511.833C371.557 514.543 365.074 518.784 363.895 517.429C362.716 516.045 370.85 510.095 374.386 506.561C377.923 503.027 387.53 494.603 389.858 491.864C393.336 487.829 390.654 486.975 390.654 486.975C388.886 485.59 380.841 493.042 375.948 497.931C371.056 502.82 363.011 511.067 360.27 514.189C357.529 517.311 357.912 520.257 359.298 521.641C361.891 524.232 369.494 520.845 374.593 518.519C379.691 516.162 381.931 514.602 382.432 519.491C383.08 525.941 383.552 531.625 384.318 538.488C385.084 545.35 386.234 549.797 389.092 550.033C393.13 550.357 394.191 544.732 396.136 537.692C396.136 537.692 395.016 554.687 400.35 555.217C403.297 555.511 405.36 550.328 406.244 543.259C407.128 536.22 407.128 535.13 407.335 532.774C407.541 530.418 407.776 528.356 406.421 528.268Z" fill="#362E53"/>
<path d="M409.454 150.452C410.014 143.443 409.277 135.903 403.029 132.604C396.634 129.217 392.921 127.921 382.901 126.331C373.824 124.887 365.602 118.319 360.268 113.96C353.519 108.453 343.705 107.805 333.774 108.04C326.2 108.247 320.571 106.862 309.402 113.784C302.034 118.349 303.006 119.232 295.344 121.5C288.271 123.591 282.141 123.209 282.348 134.666C282.495 143.767 280.461 154.694 289.096 156.991C293.9 158.257 298.055 158.257 298.409 155.901C298.91 152.779 293.517 152.779 290.364 151.984C287.24 151.189 287.24 147.595 287.24 137.022C287.24 125.653 290.57 127.185 296.258 126.065C306.071 124.092 308.606 118.496 316.445 115.168C324.284 111.84 328.41 112.429 335.247 112.429C342.379 112.429 351.78 112.37 358.175 118.378C364.57 124.387 372.144 130.13 378.834 130.925C385.495 131.72 396.605 133.87 401.438 138.877C403.56 141.764 404.179 142.53 403.796 149.657C403.531 154.34 398.992 154.193 399.493 156.785C399.817 158.493 402.234 158.964 404.621 157.992C407.008 157.02 409.13 154.576 409.454 150.452Z" fill="#362E53"/>
<path d="M319.657 155.047C319.392 157.374 321.867 158.847 326.465 158.847H360.827C365.278 158.847 366.191 157.286 366.191 155.577C366.191 153.869 363.981 153.103 360.444 153.103H326.082C322.693 153.103 319.922 152.838 319.657 155.047Z" fill="#362E53"/>
<path d="M309.401 140.232C302.535 140.232 295.373 145.711 296.081 154.134C296.788 162.734 303.448 166.475 310.403 165.886C317.447 165.297 321.337 160.201 321.779 153.751C322.133 147.89 318.596 140.232 309.401 140.232ZM314.264 153.368C314.087 156.078 312.466 158.199 309.49 158.464C306.572 158.699 303.772 157.138 303.478 153.545C303.183 150.011 306.189 147.714 309.077 147.714C312.967 147.714 314.441 150.894 314.264 153.368Z" fill="#362E53"/>
<path d="M382.695 140.232C375.829 140.232 368.667 145.711 369.375 154.134C370.082 162.734 376.742 166.475 383.697 165.886C390.741 165.297 394.631 160.201 395.073 153.751C395.427 147.89 391.92 140.232 382.695 140.232ZM387.587 153.368C387.411 156.078 385.79 158.199 382.813 158.464C379.896 158.699 377.096 157.138 376.801 153.545C376.507 150.011 379.513 147.714 382.401 147.714C386.261 147.714 387.735 150.894 387.587 153.368Z" fill="#362E53"/>
<path d="M335.513 117.436C325.375 117.347 318.361 117.436 313.763 124.063C309.166 130.69 311.73 131.338 318.656 131.338H350.454C357.468 131.338 360.946 131.426 361.152 129.6C361.329 127.744 358.677 125.712 354.227 122.06C349.983 118.526 346.947 117.524 335.513 117.436Z" fill="#362E53"/>
<path d="M381.961 565.847C382.403 572.297 386.263 577.392 393.336 577.981C400.291 578.571 406.952 574.83 407.659 566.23C408.337 557.806 401.175 552.328 394.338 552.328C385.114 552.328 381.577 559.986 381.961 565.847ZM394.603 559.809C397.492 559.809 400.468 562.106 400.203 565.641C399.908 569.234 397.108 570.824 394.191 570.559C391.244 570.324 389.593 568.174 389.417 565.464C389.269 563.019 390.743 559.809 394.603 559.809Z" fill="#362E53"/>
<path d="M308.667 565.847C309.109 572.297 312.969 577.392 320.042 577.981C326.997 578.571 333.658 574.83 334.365 566.23C335.043 557.806 327.911 552.328 321.044 552.328C311.791 552.328 308.284 559.986 308.667 565.847ZM321.31 559.809C324.198 559.809 327.174 562.106 326.909 565.641C326.614 569.234 323.814 570.824 320.897 570.559C317.95 570.324 316.3 568.174 316.123 565.464C315.946 563.019 317.449 559.809 321.31 559.809Z" fill="#362E53"/>
<path d="M387.442 543.14L385.556 532.036C381.223 529.503 375.536 529.474 368.198 529.533C356.763 529.621 353.727 530.652 349.484 534.127C345.034 537.78 342.381 539.841 342.558 541.667C342.735 543.523 346.242 543.405 353.256 543.405H387.412V543.14H387.442Z" fill="#362E53"/>
<path d="M360.24 566.055H341.998C335.308 566.055 331.624 566.055 331.418 569C331.212 571.945 336.517 571.739 341.998 571.739H384.937C385.732 571.739 385.32 566.055 385.32 566.055H360.24Z" fill="#362E53"/>
<path d="M411.608 499.788C409.132 500.495 412.197 509.743 411.608 521.495C411.401 525.795 411.225 534.071 405.979 541.7C404.27 544.174 407.01 545.499 409.368 542.495C411.726 539.491 415.262 533.099 415.645 522.761C416.028 512.453 415.645 510.215 415.115 506.032C414.584 501.85 413.405 499.258 411.608 499.788Z" fill="#362E53"/>
</svg>
